<?xml version="1.0" encoding="utf-8" standalone="no"?>
<!DOCTYPE svg PUBLIC "-//W3C//DTD SVG 1.1//EN"
  "http://www.w3.org/Graphics/SVG/1.1/DTD/svg11.dtd">
<!-- Created with matplotlib (https://matplotlib.org/) -->
<svg height="162.72pt" version="1.1" viewBox="0 0 1098.72 162.72" width="1098.72pt" xmlns="http://www.w3.org/2000/svg" xmlns:xlink="http://www.w3.org/1999/xlink">
 <defs>
  <style type="text/css">
*{stroke-linecap:butt;stroke-linejoin:round;}
  </style>
 </defs>
 <g id="figure_1">
  <g id="patch_1">
   <path d="M 0 162.72 
L 1098.72 162.72 
L 1098.72 0 
L 0 0 
z
" style="fill:#ffffff;"/>
  </g>
  <g id="axes_1">
   <g id="patch_2">
    <path d="M 47.088 136.762286 
L 180.397144 136.762286 
L 180.397144 40.292571 
L 47.088 40.292571 
z
" style="fill:#ffffff;"/>
   </g>
   <g id="patch_3">
    <path clip-path="url(#p61310b54d3)" d="M 53.147507 136.762286 
L 81.11446 136.762286 
L 81.11446 110.273049 
L 53.147507 110.273049 
z
" style="fill:#ffc300;stroke:#ffffff;stroke-linejoin:miter;"/>
   </g>
   <g id="patch_4">
    <path clip-path="url(#p61310b54d3)" d="M 99.759095 136.762286 
L 127.726048 136.762286 
L 127.726048 112.623057 
L 99.759095 112.623057 
z
" style="fill:#ffc300;stroke:#ffffff;stroke-linejoin:miter;"/>
   </g>
   <g id="patch_5">
    <path clip-path="url(#p61310b54d3)" d="M 146.370684 136.762286 
L 174.337637 136.762286 
L 174.337637 104.742393 
L 146.370684 104.742393 
z
" style="fill:#ffc300;stroke:#ffffff;stroke-linejoin:miter;"/>
   </g>
   <g id="patch_6">
    <path clip-path="url(#p61310b54d3)" d="M 53.147507 110.273049 
L 81.11446 110.273049 
L 81.11446 83.175087 
L 53.147507 83.175087 
z
" style="fill:#ff5733;stroke:#ffffff;stroke-linejoin:miter;"/>
   </g>
   <g id="patch_7">
    <path clip-path="url(#p61310b54d3)" d="M 99.759095 112.623057 
L 127.726048 112.623057 
L 127.726048 88.394571 
L 99.759095 88.394571 
z
" style="fill:#ff5733;stroke:#ffffff;stroke-linejoin:miter;"/>
   </g>
   <g id="patch_8">
    <path clip-path="url(#p61310b54d3)" d="M 146.370684 104.742393 
L 174.337637 104.742393 
L 174.337637 82.430998 
L 146.370684 82.430998 
z
" style="fill:#ff5733;stroke:#ffffff;stroke-linejoin:miter;"/>
   </g>
   <g id="patch_9">
    <path clip-path="url(#p61310b54d3)" d="M 53.147507 83.175087 
L 81.11446 83.175087 
L 81.11446 44.886367 
L 53.147507 44.886367 
z
" style="fill:#c70039;stroke:#ffffff;stroke-linejoin:miter;"/>
   </g>
   <g id="patch_10">
    <path clip-path="url(#p61310b54d3)" d="M 99.759095 88.394571 
L 127.726048 88.394571 
L 127.726048 44.886367 
L 99.759095 44.886367 
z
" style="fill:#c70039;stroke:#ffffff;stroke-linejoin:miter;"/>
   </g>
   <g id="patch_11">
    <path clip-path="url(#p61310b54d3)" d="M 146.370684 82.430998 
L 174.337637 82.430998 
L 174.337637 44.886367 
L 146.370684 44.886367 
z
" style="fill:#c70039;stroke:#ffffff;stroke-linejoin:miter;"/>
   </g>
   <g id="matplotlib.axis_1">
    <g id="xtick_1">
     <g id="line2d_1">
      <defs>
       <path d="M 0 0 
L 0 3.5 
" id="m48ca2ed5df" style="stroke:#000000;stroke-width:0.8;"/>
      </defs>
      <g>
       <use style="stroke:#000000;stroke-width:0.8;" x="67.130983" xlink:href="#m48ca2ed5df" y="136.762286"/>
      </g>
     </g>
     <g id="text_1">
      <!-- AMAZON -->
      <defs>
       <path d="M 34.1875 63.1875 
L 20.796875 26.90625 
L 47.609375 26.90625 
z
M 28.609375 72.90625 
L 39.796875 72.90625 
L 67.578125 0 
L 57.328125 0 
L 50.6875 18.703125 
L 17.828125 18.703125 
L 11.1875 0 
L 0.78125 0 
z
" id="DejaVuSans-65"/>
       <path d="M 9.8125 72.90625 
L 24.515625 72.90625 
L 43.109375 23.296875 
L 61.8125 72.90625 
L 76.515625 72.90625 
L 76.515625 0 
L 66.890625 0 
L 66.890625 64.015625 
L 48.09375 14.015625 
L 38.1875 14.015625 
L 19.390625 64.015625 
L 19.390625 0 
L 9.8125 0 
z
" id="DejaVuSans-77"/>
       <path d="M 5.609375 72.90625 
L 62.890625 72.90625 
L 62.890625 65.375 
L 16.796875 8.296875 
L 64.015625 8.296875 
L 64.015625 0 
L 4.5 0 
L 4.5 7.515625 
L 50.59375 64.59375 
L 5.609375 64.59375 
z
" id="DejaVuSans-90"/>
       <path d="M 39.40625 66.21875 
Q 28.65625 66.21875 22.328125 58.203125 
Q 16.015625 50.203125 16.015625 36.375 
Q 16.015625 22.609375 22.328125 14.59375 
Q 28.65625 6.59375 39.40625 6.59375 
Q 50.140625 6.59375 56.421875 14.59375 
Q 62.703125 22.609375 62.703125 36.375 
Q 62.703125 50.203125 56.421875 58.203125 
Q 50.140625 66.21875 39.40625 66.21875 
z
M 39.40625 74.21875 
Q 54.734375 74.21875 63.90625 63.9375 
Q 73.09375 53.65625 73.09375 36.375 
Q 73.09375 19.140625 63.90625 8.859375 
Q 54.734375 -1.421875 39.40625 -1.421875 
Q 24.03125 -1.421875 14.8125 8.828125 
Q 5.609375 19.09375 5.609375 36.375 
Q 5.609375 53.65625 14.8125 63.9375 
Q 24.03125 74.21875 39.40625 74.21875 
z
" id="DejaVuSans-79"/>
       <path d="M 9.8125 72.90625 
L 23.09375 72.90625 
L 55.421875 11.921875 
L 55.421875 72.90625 
L 64.984375 72.90625 
L 64.984375 0 
L 51.703125 0 
L 19.390625 60.984375 
L 19.390625 0 
L 9.8125 0 
z
" id="DejaVuSans-78"/>
      </defs>
      <g transform="translate(49.325983 149.841036)scale(0.08 -0.08)">
       <use xlink:href="#DejaVuSans-65"/>
       <use x="68.408203" xlink:href="#DejaVuSans-77"/>
       <use x="154.6875" xlink:href="#DejaVuSans-65"/>
       <use x="223.095703" xlink:href="#DejaVuSans-90"/>
       <use x="291.601562" xlink:href="#DejaVuSans-79"/>
       <use x="370.3125" xlink:href="#DejaVuSans-78"/>
      </g>
      <!-- REVIEWS -->
      <defs>
       <path d="M 44.390625 34.1875 
Q 47.5625 33.109375 50.5625 29.59375 
Q 53.5625 26.078125 56.59375 19.921875 
L 66.609375 0 
L 56 0 
L 46.6875 18.703125 
Q 43.0625 26.03125 39.671875 28.421875 
Q 36.28125 30.8125 30.421875 30.8125 
L 19.671875 30.8125 
L 19.671875 0 
L 9.8125 0 
L 9.8125 72.90625 
L 32.078125 72.90625 
Q 44.578125 72.90625 50.734375 67.671875 
Q 56.890625 62.453125 56.890625 51.90625 
Q 56.890625 45.015625 53.6875 40.46875 
Q 50.484375 35.9375 44.390625 34.1875 
z
M 19.671875 64.796875 
L 19.671875 38.921875 
L 32.078125 38.921875 
Q 39.203125 38.921875 42.84375 42.21875 
Q 46.484375 45.515625 46.484375 51.90625 
Q 46.484375 58.296875 42.84375 61.546875 
Q 39.203125 64.796875 32.078125 64.796875 
z
" id="DejaVuSans-82"/>
       <path d="M 9.8125 72.90625 
L 55.90625 72.90625 
L 55.90625 64.59375 
L 19.671875 64.59375 
L 19.671875 43.015625 
L 54.390625 43.015625 
L 54.390625 34.71875 
L 19.671875 34.71875 
L 19.671875 8.296875 
L 56.78125 8.296875 
L 56.78125 0 
L 9.8125 0 
z
" id="DejaVuSans-69"/>
       <path d="M 28.609375 0 
L 0.78125 72.90625 
L 11.078125 72.90625 
L 34.1875 11.53125 
L 57.328125 72.90625 
L 67.578125 72.90625 
L 39.796875 0 
z
" id="DejaVuSans-86"/>
       <path d="M 9.8125 72.90625 
L 19.671875 72.90625 
L 19.671875 0 
L 9.8125 0 
z
" id="DejaVuSans-73"/>
       <path d="M 3.328125 72.90625 
L 13.28125 72.90625 
L 28.609375 11.28125 
L 43.890625 72.90625 
L 54.984375 72.90625 
L 70.3125 11.28125 
L 85.59375 72.90625 
L 95.609375 72.90625 
L 77.296875 0 
L 64.890625 0 
L 49.515625 63.28125 
L 33.984375 0 
L 21.578125 0 
z
" id="DejaVuSans-87"/>
       <path d="M 53.515625 70.515625 
L 53.515625 60.890625 
Q 47.90625 63.578125 42.921875 64.890625 
Q 37.9375 66.21875 33.296875 66.21875 
Q 25.25 66.21875 20.875 63.09375 
Q 16.5 59.96875 16.5 54.203125 
Q 16.5 49.359375 19.40625 46.890625 
Q 22.3125 44.4375 30.421875 42.921875 
L 36.375 41.703125 
Q 47.40625 39.59375 52.65625 34.296875 
Q 57.90625 29 57.90625 20.125 
Q 57.90625 9.515625 50.796875 4.046875 
Q 43.703125 -1.421875 29.984375 -1.421875 
Q 24.8125 -1.421875 18.96875 -0.25 
Q 13.140625 0.921875 6.890625 3.21875 
L 6.890625 13.375 
Q 12.890625 10.015625 18.65625 8.296875 
Q 24.421875 6.59375 29.984375 6.59375 
Q 38.421875 6.59375 43.015625 9.90625 
Q 47.609375 13.234375 47.609375 19.390625 
Q 47.609375 24.75 44.3125 27.78125 
Q 41.015625 30.8125 33.5 32.328125 
L 27.484375 33.5 
Q 16.453125 35.6875 11.515625 40.375 
Q 6.59375 45.0625 6.59375 53.421875 
Q 6.59375 63.09375 13.40625 68.65625 
Q 20.21875 74.21875 32.171875 74.21875 
Q 37.3125 74.21875 42.625 73.28125 
Q 47.953125 72.359375 53.515625 70.515625 
z
" id="DejaVuSans-83"/>
      </defs>
      <g transform="translate(48.885983 158.799286)scale(0.08 -0.08)">
       <use xlink:href="#DejaVuSans-82"/>
       <use x="69.482422" xlink:href="#DejaVuSans-69"/>
       <use x="132.666016" xlink:href="#DejaVuSans-86"/>
       <use x="201.074219" xlink:href="#DejaVuSans-73"/>
       <use x="230.566406" xlink:href="#DejaVuSans-69"/>
       <use x="293.75" xlink:href="#DejaVuSans-87"/>
       <use x="392.626953" xlink:href="#DejaVuSans-83"/>
      </g>
     </g>
    </g>
    <g id="xtick_2">
     <g id="line2d_2">
      <g>
       <use style="stroke:#000000;stroke-width:0.8;" x="113.742572" xlink:href="#m48ca2ed5df" y="136.762286"/>
      </g>
     </g>
     <g id="text_2">
      <!-- NEWS -->
      <g transform="translate(101.728197 149.841036)scale(0.08 -0.08)">
       <use xlink:href="#DejaVuSans-78"/>
       <use x="74.804688" xlink:href="#DejaVuSans-69"/>
       <use x="137.988281" xlink:href="#DejaVuSans-87"/>
       <use x="236.865234" xlink:href="#DejaVuSans-83"/>
      </g>
      <!-- HEAD -->
      <defs>
       <path d="M 9.8125 72.90625 
L 19.671875 72.90625 
L 19.671875 43.015625 
L 55.515625 43.015625 
L 55.515625 72.90625 
L 65.375 72.90625 
L 65.375 0 
L 55.515625 0 
L 55.515625 34.71875 
L 19.671875 34.71875 
L 19.671875 0 
L 9.8125 0 
z
" id="DejaVuSans-72"/>
       <path d="M 19.671875 64.796875 
L 19.671875 8.109375 
L 31.59375 8.109375 
Q 46.6875 8.109375 53.6875 14.9375 
Q 60.6875 21.78125 60.6875 36.53125 
Q 60.6875 51.171875 53.6875 57.984375 
Q 46.6875 64.796875 31.59375 64.796875 
z
M 9.8125 72.90625 
L 30.078125 72.90625 
Q 51.265625 72.90625 61.171875 64.09375 
Q 71.09375 55.28125 71.09375 36.53125 
Q 71.09375 17.671875 61.125 8.828125 
Q 51.171875 0 30.078125 0 
L 9.8125 0 
z
" id="DejaVuSans-68"/>
      </defs>
      <g transform="translate(102.390697 158.799286)scale(0.08 -0.08)">
       <use xlink:href="#DejaVuSans-72"/>
       <use x="75.195312" xlink:href="#DejaVuSans-69"/>
       <use x="138.378906" xlink:href="#DejaVuSans-65"/>
       <use x="206.787109" xlink:href="#DejaVuSans-68"/>
      </g>
     </g>
    </g>
    <g id="xtick_3">
     <g id="line2d_3">
      <g>
       <use style="stroke:#000000;stroke-width:0.8;" x="160.354161" xlink:href="#m48ca2ed5df" y="136.762286"/>
      </g>
     </g>
     <g id="text_3">
      <!-- STS -->
      <defs>
       <path d="M -0.296875 72.90625 
L 61.375 72.90625 
L 61.375 64.59375 
L 35.5 64.59375 
L 35.5 0 
L 25.59375 0 
L 25.59375 64.59375 
L -0.296875 64.59375 
z
" id="DejaVuSans-84"/>
      </defs>
      <g transform="translate(152.832286 149.841036)scale(0.08 -0.08)">
       <use xlink:href="#DejaVuSans-83"/>
       <use x="63.476562" xlink:href="#DejaVuSans-84"/>
       <use x="124.560547" xlink:href="#DejaVuSans-83"/>
      </g>
     </g>
    </g>
   </g>
   <g id="matplotlib.axis_2">
    <g id="ytick_1">
     <g id="line2d_4">
      <defs>
       <path d="M 0 0 
L -3.5 0 
" id="m1f3f4e49ef" style="stroke:#000000;stroke-width:0.8;"/>
      </defs>
      <g>
       <use style="stroke:#000000;stroke-width:0.8;" x="47.088" xlink:href="#m1f3f4e49ef" y="136.762286"/>
      </g>
     </g>
     <g id="text_4">
      <!-- 0 -->
      <defs>
       <path d="M 31.78125 66.40625 
Q 24.171875 66.40625 20.328125 58.90625 
Q 16.5 51.421875 16.5 36.375 
Q 16.5 21.390625 20.328125 13.890625 
Q 24.171875 6.390625 31.78125 6.390625 
Q 39.453125 6.390625 43.28125 13.890625 
Q 47.125 21.390625 47.125 36.375 
Q 47.125 51.421875 43.28125 58.90625 
Q 39.453125 66.40625 31.78125 66.40625 
z
M 31.78125 74.21875 
Q 44.046875 74.21875 50.515625 64.515625 
Q 56.984375 54.828125 56.984375 36.375 
Q 56.984375 17.96875 50.515625 8.265625 
Q 44.046875 -1.421875 31.78125 -1.421875 
Q 19.53125 -1.421875 13.0625 8.265625 
Q 6.59375 17.96875 6.59375 36.375 
Q 6.59375 54.828125 13.0625 64.515625 
Q 19.53125 74.21875 31.78125 74.21875 
z
" id="DejaVuSans-48"/>
      </defs>
      <g transform="translate(35.312378 141.62041)rotate(-45)scale(0.08 -0.08)">
       <use xlink:href="#DejaVuSans-48"/>
      </g>
     </g>
    </g>
    <g id="ytick_2">
     <g id="line2d_5">
      <g>
       <use style="stroke:#000000;stroke-width:0.8;" x="47.088" xlink:href="#m1f3f4e49ef" y="90.824327"/>
      </g>
     </g>
     <g id="text_5">
      <!-- 50 -->
      <defs>
       <path d="M 10.796875 72.90625 
L 49.515625 72.90625 
L 49.515625 64.59375 
L 19.828125 64.59375 
L 19.828125 46.734375 
Q 21.96875 47.46875 24.109375 47.828125 
Q 26.265625 48.1875 28.421875 48.1875 
Q 40.625 48.1875 47.75 41.5 
Q 54.890625 34.8125 54.890625 23.390625 
Q 54.890625 11.625 47.5625 5.09375 
Q 40.234375 -1.421875 26.90625 -1.421875 
Q 22.3125 -1.421875 17.546875 -0.640625 
Q 12.796875 0.140625 7.71875 1.703125 
L 7.71875 11.625 
Q 12.109375 9.234375 16.796875 8.0625 
Q 21.484375 6.890625 26.703125 6.890625 
Q 35.15625 6.890625 40.078125 11.328125 
Q 45.015625 15.765625 45.015625 23.390625 
Q 45.015625 31 40.078125 35.4375 
Q 35.15625 39.890625 26.703125 39.890625 
Q 22.75 39.890625 18.8125 39.015625 
Q 14.890625 38.140625 10.796875 36.28125 
z
" id="DejaVuSans-53"/>
      </defs>
      <g transform="translate(31.713204 99.281624)rotate(-45)scale(0.08 -0.08)">
       <use xlink:href="#DejaVuSans-53"/>
       <use x="63.623047" xlink:href="#DejaVuSans-48"/>
      </g>
     </g>
    </g>
    <g id="ytick_3">
     <g id="line2d_6">
      <g>
       <use style="stroke:#000000;stroke-width:0.8;" x="47.088" xlink:href="#m1f3f4e49ef" y="44.886367"/>
      </g>
     </g>
     <g id="text_6">
      <!-- 100 -->
      <defs>
       <path d="M 12.40625 8.296875 
L 28.515625 8.296875 
L 28.515625 63.921875 
L 10.984375 60.40625 
L 10.984375 69.390625 
L 28.421875 72.90625 
L 38.28125 72.90625 
L 38.28125 8.296875 
L 54.390625 8.296875 
L 54.390625 0 
L 12.40625 0 
z
" id="DejaVuSans-49"/>
      </defs>
      <g transform="translate(28.114031 56.942838)rotate(-45)scale(0.08 -0.08)">
       <use xlink:href="#DejaVuSans-49"/>
       <use x="63.623047" xlink:href="#DejaVuSans-48"/>
       <use x="127.246094" xlink:href="#DejaVuSans-48"/>
      </g>
     </g>
    </g>
    <g id="text_7">
     <!-- % of inconsistencies -->
     <defs>
      <path d="M 72.703125 32.078125 
Q 68.453125 32.078125 66.03125 28.46875 
Q 63.625 24.859375 63.625 18.40625 
Q 63.625 12.0625 66.03125 8.421875 
Q 68.453125 4.78125 72.703125 4.78125 
Q 76.859375 4.78125 79.265625 8.421875 
Q 81.6875 12.0625 81.6875 18.40625 
Q 81.6875 24.8125 79.265625 28.4375 
Q 76.859375 32.078125 72.703125 32.078125 
z
M 72.703125 38.28125 
Q 80.421875 38.28125 84.953125 32.90625 
Q 89.5 27.546875 89.5 18.40625 
Q 89.5 9.28125 84.9375 3.921875 
Q 80.375 -1.421875 72.703125 -1.421875 
Q 64.890625 -1.421875 60.34375 3.921875 
Q 55.8125 9.28125 55.8125 18.40625 
Q 55.8125 27.59375 60.375 32.9375 
Q 64.9375 38.28125 72.703125 38.28125 
z
M 22.3125 68.015625 
Q 18.109375 68.015625 15.6875 64.375 
Q 13.28125 60.75 13.28125 54.390625 
Q 13.28125 47.953125 15.671875 44.328125 
Q 18.0625 40.71875 22.3125 40.71875 
Q 26.5625 40.71875 28.96875 44.328125 
Q 31.390625 47.953125 31.390625 54.390625 
Q 31.390625 60.6875 28.953125 64.34375 
Q 26.515625 68.015625 22.3125 68.015625 
z
M 66.40625 74.21875 
L 74.21875 74.21875 
L 28.609375 -1.421875 
L 20.796875 -1.421875 
z
M 22.3125 74.21875 
Q 30.03125 74.21875 34.609375 68.875 
Q 39.203125 63.53125 39.203125 54.390625 
Q 39.203125 45.171875 34.640625 39.84375 
Q 30.078125 34.515625 22.3125 34.515625 
Q 14.546875 34.515625 10.03125 39.859375 
Q 5.515625 45.21875 5.515625 54.390625 
Q 5.515625 63.484375 10.046875 68.84375 
Q 14.59375 74.21875 22.3125 74.21875 
z
" id="DejaVuSans-37"/>
      <path id="DejaVuSans-32"/>
      <path d="M 30.609375 48.390625 
Q 23.390625 48.390625 19.1875 42.75 
Q 14.984375 37.109375 14.984375 27.296875 
Q 14.984375 17.484375 19.15625 11.84375 
Q 23.34375 6.203125 30.609375 6.203125 
Q 37.796875 6.203125 41.984375 11.859375 
Q 46.1875 17.53125 46.1875 27.296875 
Q 46.1875 37.015625 41.984375 42.703125 
Q 37.796875 48.390625 30.609375 48.390625 
z
M 30.609375 56 
Q 42.328125 56 49.015625 48.375 
Q 55.71875 40.765625 55.71875 27.296875 
Q 55.71875 13.875 49.015625 6.21875 
Q 42.328125 -1.421875 30.609375 -1.421875 
Q 18.84375 -1.421875 12.171875 6.21875 
Q 5.515625 13.875 5.515625 27.296875 
Q 5.515625 40.765625 12.171875 48.375 
Q 18.84375 56 30.609375 56 
z
" id="DejaVuSans-111"/>
      <path d="M 37.109375 75.984375 
L 37.109375 68.5 
L 28.515625 68.5 
Q 23.6875 68.5 21.796875 66.546875 
Q 19.921875 64.59375 19.921875 59.515625 
L 19.921875 54.6875 
L 34.71875 54.6875 
L 34.71875 47.703125 
L 19.921875 47.703125 
L 19.921875 0 
L 10.890625 0 
L 10.890625 47.703125 
L 2.296875 47.703125 
L 2.296875 54.6875 
L 10.890625 54.6875 
L 10.890625 58.5 
Q 10.890625 67.625 15.140625 71.796875 
Q 19.390625 75.984375 28.609375 75.984375 
z
" id="DejaVuSans-102"/>
      <path d="M 9.421875 54.6875 
L 18.40625 54.6875 
L 18.40625 0 
L 9.421875 0 
z
M 9.421875 75.984375 
L 18.40625 75.984375 
L 18.40625 64.59375 
L 9.421875 64.59375 
z
" id="DejaVuSans-105"/>
      <path d="M 54.890625 33.015625 
L 54.890625 0 
L 45.90625 0 
L 45.90625 32.71875 
Q 45.90625 40.484375 42.875 44.328125 
Q 39.84375 48.1875 33.796875 48.1875 
Q 26.515625 48.1875 22.3125 43.546875 
Q 18.109375 38.921875 18.109375 30.90625 
L 18.109375 0 
L 9.078125 0 
L 9.078125 54.6875 
L 18.109375 54.6875 
L 18.109375 46.1875 
Q 21.34375 51.125 25.703125 53.5625 
Q 30.078125 56 35.796875 56 
Q 45.21875 56 50.046875 50.171875 
Q 54.890625 44.34375 54.890625 33.015625 
z
" id="DejaVuSans-110"/>
      <path d="M 48.78125 52.59375 
L 48.78125 44.1875 
Q 44.96875 46.296875 41.140625 47.34375 
Q 37.3125 48.390625 33.40625 48.390625 
Q 24.65625 48.390625 19.8125 42.84375 
Q 14.984375 37.3125 14.984375 27.296875 
Q 14.984375 17.28125 19.8125 11.734375 
Q 24.65625 6.203125 33.40625 6.203125 
Q 37.3125 6.203125 41.140625 7.25 
Q 44.96875 8.296875 48.78125 10.40625 
L 48.78125 2.09375 
Q 45.015625 0.34375 40.984375 -0.53125 
Q 36.96875 -1.421875 32.421875 -1.421875 
Q 20.0625 -1.421875 12.78125 6.34375 
Q 5.515625 14.109375 5.515625 27.296875 
Q 5.515625 40.671875 12.859375 48.328125 
Q 20.21875 56 33.015625 56 
Q 37.15625 56 41.109375 55.140625 
Q 45.0625 54.296875 48.78125 52.59375 
z
" id="DejaVuSans-99"/>
      <path d="M 44.28125 53.078125 
L 44.28125 44.578125 
Q 40.484375 46.53125 36.375 47.5 
Q 32.28125 48.484375 27.875 48.484375 
Q 21.1875 48.484375 17.84375 46.4375 
Q 14.5 44.390625 14.5 40.28125 
Q 14.5 37.15625 16.890625 35.375 
Q 19.28125 33.59375 26.515625 31.984375 
L 29.59375 31.296875 
Q 39.15625 29.25 43.1875 25.515625 
Q 47.21875 21.78125 47.21875 15.09375 
Q 47.21875 7.46875 41.1875 3.015625 
Q 35.15625 -1.421875 24.609375 -1.421875 
Q 20.21875 -1.421875 15.453125 -0.5625 
Q 10.6875 0.296875 5.421875 2 
L 5.421875 11.28125 
Q 10.40625 8.6875 15.234375 7.390625 
Q 20.0625 6.109375 24.8125 6.109375 
Q 31.15625 6.109375 34.5625 8.28125 
Q 37.984375 10.453125 37.984375 14.40625 
Q 37.984375 18.0625 35.515625 20.015625 
Q 33.0625 21.96875 24.703125 23.78125 
L 21.578125 24.515625 
Q 13.234375 26.265625 9.515625 29.90625 
Q 5.8125 33.546875 5.8125 39.890625 
Q 5.8125 47.609375 11.28125 51.796875 
Q 16.75 56 26.8125 56 
Q 31.78125 56 36.171875 55.265625 
Q 40.578125 54.546875 44.28125 53.078125 
z
" id="DejaVuSans-115"/>
      <path d="M 18.3125 70.21875 
L 18.3125 54.6875 
L 36.8125 54.6875 
L 36.8125 47.703125 
L 18.3125 47.703125 
L 18.3125 18.015625 
Q 18.3125 11.328125 20.140625 9.421875 
Q 21.96875 7.515625 27.59375 7.515625 
L 36.8125 7.515625 
L 36.8125 0 
L 27.59375 0 
Q 17.1875 0 13.234375 3.875 
Q 9.28125 7.765625 9.28125 18.015625 
L 9.28125 47.703125 
L 2.6875 47.703125 
L 2.6875 54.6875 
L 9.28125 54.6875 
L 9.28125 70.21875 
z
" id="DejaVuSans-116"/>
      <path d="M 56.203125 29.59375 
L 56.203125 25.203125 
L 14.890625 25.203125 
Q 15.484375 15.921875 20.484375 11.0625 
Q 25.484375 6.203125 34.421875 6.203125 
Q 39.59375 6.203125 44.453125 7.46875 
Q 49.3125 8.734375 54.109375 11.28125 
L 54.109375 2.78125 
Q 49.265625 0.734375 44.1875 -0.34375 
Q 39.109375 -1.421875 33.890625 -1.421875 
Q 20.796875 -1.421875 13.15625 6.1875 
Q 5.515625 13.8125 5.515625 26.8125 
Q 5.515625 40.234375 12.765625 48.109375 
Q 20.015625 56 32.328125 56 
Q 43.359375 56 49.78125 48.890625 
Q 56.203125 41.796875 56.203125 29.59375 
z
M 47.21875 32.234375 
Q 47.125 39.59375 43.09375 43.984375 
Q 39.0625 48.390625 32.421875 48.390625 
Q 24.90625 48.390625 20.390625 44.140625 
Q 15.875 39.890625 15.1875 32.171875 
z
" id="DejaVuSans-101"/>
     </defs>
     <g transform="translate(17.736018 139.43446)rotate(-90)scale(0.1 -0.1)">
      <use xlink:href="#DejaVuSans-37"/>
      <use x="95.019531" xlink:href="#DejaVuSans-32"/>
      <use x="126.806641" xlink:href="#DejaVuSans-111"/>
      <use x="187.988281" xlink:href="#DejaVuSans-102"/>
      <use x="223.193359" xlink:href="#DejaVuSans-32"/>
      <use x="254.980469" xlink:href="#DejaVuSans-105"/>
      <use x="282.763672" xlink:href="#DejaVuSans-110"/>
      <use x="346.142578" xlink:href="#DejaVuSans-99"/>
      <use x="401.123047" xlink:href="#DejaVuSans-111"/>
      <use x="462.304688" xlink:href="#DejaVuSans-110"/>
      <use x="525.683594" xlink:href="#DejaVuSans-115"/>
      <use x="577.783203" xlink:href="#DejaVuSans-105"/>
      <use x="605.566406" xlink:href="#DejaVuSans-115"/>
      <use x="657.666016" xlink:href="#DejaVuSans-116"/>
      <use x="696.875" xlink:href="#DejaVuSans-101"/>
      <use x="758.398438" xlink:href="#DejaVuSans-110"/>
      <use x="821.777344" xlink:href="#DejaVuSans-99"/>
      <use x="876.757812" xlink:href="#DejaVuSans-105"/>
      <use x="904.541016" xlink:href="#DejaVuSans-101"/>
      <use x="966.064453" xlink:href="#DejaVuSans-115"/>
     </g>
    </g>
   </g>
   <g id="patch_12">
    <path d="M 47.088 136.762286 
L 47.088 40.292571 
" style="fill:none;stroke:#000000;stroke-linecap:square;stroke-linejoin:miter;stroke-width:0.8;"/>
   </g>
   <g id="patch_13">
    <path d="M 180.397144 136.762286 
L 180.397144 40.292571 
" style="fill:none;stroke:#000000;stroke-linecap:square;stroke-linejoin:miter;stroke-width:0.8;"/>
   </g>
   <g id="patch_14">
    <path d="M 47.088 136.762286 
L 180.397144 136.762286 
" style="fill:none;stroke:#000000;stroke-linecap:square;stroke-linejoin:miter;stroke-width:0.8;"/>
   </g>
   <g id="patch_15">
    <path d="M 47.088 40.292571 
L 180.397144 40.292571 
" style="fill:none;stroke:#000000;stroke-linecap:square;stroke-linejoin:miter;stroke-width:0.8;"/>
   </g>
   <g id="text_8">
    <!-- char_cnn -->
    <defs>
     <path d="M 54.890625 33.015625 
L 54.890625 0 
L 45.90625 0 
L 45.90625 32.71875 
Q 45.90625 40.484375 42.875 44.328125 
Q 39.84375 48.1875 33.796875 48.1875 
Q 26.515625 48.1875 22.3125 43.546875 
Q 18.109375 38.921875 18.109375 30.90625 
L 18.109375 0 
L 9.078125 0 
L 9.078125 75.984375 
L 18.109375 75.984375 
L 18.109375 46.1875 
Q 21.34375 51.125 25.703125 53.5625 
Q 30.078125 56 35.796875 56 
Q 45.21875 56 50.046875 50.171875 
Q 54.890625 44.34375 54.890625 33.015625 
z
" id="DejaVuSans-104"/>
     <path d="M 34.28125 27.484375 
Q 23.390625 27.484375 19.1875 25 
Q 14.984375 22.515625 14.984375 16.5 
Q 14.984375 11.71875 18.140625 8.90625 
Q 21.296875 6.109375 26.703125 6.109375 
Q 34.1875 6.109375 38.703125 11.40625 
Q 43.21875 16.703125 43.21875 25.484375 
L 43.21875 27.484375 
z
M 52.203125 31.203125 
L 52.203125 0 
L 43.21875 0 
L 43.21875 8.296875 
Q 40.140625 3.328125 35.546875 0.953125 
Q 30.953125 -1.421875 24.3125 -1.421875 
Q 15.921875 -1.421875 10.953125 3.296875 
Q 6 8.015625 6 15.921875 
Q 6 25.140625 12.171875 29.828125 
Q 18.359375 34.515625 30.609375 34.515625 
L 43.21875 34.515625 
L 43.21875 35.40625 
Q 43.21875 41.609375 39.140625 45 
Q 35.0625 48.390625 27.6875 48.390625 
Q 23 48.390625 18.546875 47.265625 
Q 14.109375 46.140625 10.015625 43.890625 
L 10.015625 52.203125 
Q 14.9375 54.109375 19.578125 55.046875 
Q 24.21875 56 28.609375 56 
Q 40.484375 56 46.34375 49.84375 
Q 52.203125 43.703125 52.203125 31.203125 
z
" id="DejaVuSans-97"/>
     <path d="M 41.109375 46.296875 
Q 39.59375 47.171875 37.8125 47.578125 
Q 36.03125 48 33.890625 48 
Q 26.265625 48 22.1875 43.046875 
Q 18.109375 38.09375 18.109375 28.8125 
L 18.109375 0 
L 9.078125 0 
L 9.078125 54.6875 
L 18.109375 54.6875 
L 18.109375 46.1875 
Q 20.953125 51.171875 25.484375 53.578125 
Q 30.03125 56 36.53125 56 
Q 37.453125 56 38.578125 55.875 
Q 39.703125 55.765625 41.0625 55.515625 
z
" id="DejaVuSans-114"/>
     <path d="M 50.984375 -16.609375 
L 50.984375 -23.578125 
L -0.984375 -23.578125 
L -0.984375 -16.609375 
z
" id="DejaVuSans-95"/>
    </defs>
    <g transform="translate(86.593509 34.292571)scale(0.12 -0.12)">
     <use xlink:href="#DejaVuSans-99"/>
     <use x="54.980469" xlink:href="#DejaVuSans-104"/>
     <use x="118.359375" xlink:href="#DejaVuSans-97"/>
     <use x="179.638672" xlink:href="#DejaVuSans-114"/>
     <use x="220.751953" xlink:href="#DejaVuSans-95"/>
     <use x="270.751953" xlink:href="#DejaVuSans-99"/>
     <use x="325.732422" xlink:href="#DejaVuSans-110"/>
     <use x="389.111328" xlink:href="#DejaVuSans-110"/>
    </g>
   </g>
  </g>
  <g id="axes_2">
   <g id="patch_16">
    <path d="M 230.229371 136.762286 
L 363.538515 136.762286 
L 363.538515 40.292571 
L 230.229371 40.292571 
z
" style="fill:#ffffff;"/>
   </g>
   <g id="patch_17">
    <path clip-path="url(#p241fc7a0de)" d="M 236.288878 136.762286 
L 264.255831 136.762286 
L 264.255831 112.278242 
L 236.288878 112.278242 
z
" style="fill:#ffc300;stroke:#ffffff;stroke-linejoin:miter;"/>
   </g>
   <g id="patch_18">
    <path clip-path="url(#p241fc7a0de)" d="M 282.900467 136.762286 
L 310.86742 136.762286 
L 310.86742 107.991908 
L 282.900467 107.991908 
z
" style="fill:#ffc300;stroke:#ffffff;stroke-linejoin:miter;"/>
   </g>
   <g id="patch_19">
    <path clip-path="url(#p241fc7a0de)" d="M 329.512055 136.762286 
L 357.479008 136.762286 
L 357.479008 108.010423 
L 329.512055 108.010423 
z
" style="fill:#ffc300;stroke:#ffffff;stroke-linejoin:miter;"/>
   </g>
   <g id="patch_20">
    <path clip-path="url(#p241fc7a0de)" d="M 236.288878 112.278242 
L 264.255831 112.278242 
L 264.255831 91.304419 
L 236.288878 91.304419 
z
" style="fill:#ff5733;stroke:#ffffff;stroke-linejoin:miter;"/>
   </g>
   <g id="patch_21">
    <path clip-path="url(#p241fc7a0de)" d="M 282.900467 107.991908 
L 310.86742 107.991908 
L 310.86742 78.553066 
L 282.900467 78.553066 
z
" style="fill:#ff5733;stroke:#ffffff;stroke-linejoin:miter;"/>
   </g>
   <g id="patch_22">
    <path clip-path="url(#p241fc7a0de)" d="M 329.512055 108.010423 
L 357.479008 108.010423 
L 357.479008 86.092801 
L 329.512055 86.092801 
z
" style="fill:#ff5733;stroke:#ffffff;stroke-linejoin:miter;"/>
   </g>
   <g id="patch_23">
    <path clip-path="url(#p241fc7a0de)" d="M 236.288878 91.304419 
L 264.255831 91.304419 
L 264.255831 44.886367 
L 236.288878 44.886367 
z
" style="fill:#c70039;stroke:#ffffff;stroke-linejoin:miter;"/>
   </g>
   <g id="patch_24">
    <path clip-path="url(#p241fc7a0de)" d="M 282.900467 78.553066 
L 310.86742 78.553066 
L 310.86742 44.886367 
L 282.900467 44.886367 
z
" style="fill:#c70039;stroke:#ffffff;stroke-linejoin:miter;"/>
   </g>
   <g id="patch_25">
    <path clip-path="url(#p241fc7a0de)" d="M 329.512055 86.092801 
L 357.479008 86.092801 
L 357.479008 44.886367 
L 329.512055 44.886367 
z
" style="fill:#c70039;stroke:#ffffff;stroke-linejoin:miter;"/>
   </g>
   <g id="matplotlib.axis_3">
    <g id="xtick_4">
     <g id="line2d_7">
      <g>
       <use style="stroke:#000000;stroke-width:0.8;" x="250.272354" xlink:href="#m48ca2ed5df" y="136.762286"/>
      </g>
     </g>
     <g id="text_9">
      <!-- AMAZON -->
      <g transform="translate(232.467354 149.841036)scale(0.08 -0.08)">
       <use xlink:href="#DejaVuSans-65"/>
       <use x="68.408203" xlink:href="#DejaVuSans-77"/>
       <use x="154.6875" xlink:href="#DejaVuSans-65"/>
       <use x="223.095703" xlink:href="#DejaVuSans-90"/>
       <use x="291.601562" xlink:href="#DejaVuSans-79"/>
       <use x="370.3125" xlink:href="#DejaVuSans-78"/>
      </g>
      <!-- REVIEWS -->
      <g transform="translate(232.027354 158.799286)scale(0.08 -0.08)">
       <use xlink:href="#DejaVuSans-82"/>
       <use x="69.482422" xlink:href="#DejaVuSans-69"/>
       <use x="132.666016" xlink:href="#DejaVuSans-86"/>
       <use x="201.074219" xlink:href="#DejaVuSans-73"/>
       <use x="230.566406" xlink:href="#DejaVuSans-69"/>
       <use x="293.75" xlink:href="#DejaVuSans-87"/>
       <use x="392.626953" xlink:href="#DejaVuSans-83"/>
      </g>
     </g>
    </g>
    <g id="xtick_5">
     <g id="line2d_8">
      <g>
       <use style="stroke:#000000;stroke-width:0.8;" x="296.883943" xlink:href="#m48ca2ed5df" y="136.762286"/>
      </g>
     </g>
     <g id="text_10">
      <!-- NEWS -->
      <g transform="translate(284.869568 149.841036)scale(0.08 -0.08)">
       <use xlink:href="#DejaVuSans-78"/>
       <use x="74.804688" xlink:href="#DejaVuSans-69"/>
       <use x="137.988281" xlink:href="#DejaVuSans-87"/>
       <use x="236.865234" xlink:href="#DejaVuSans-83"/>
      </g>
      <!-- HEAD -->
      <g transform="translate(285.532068 158.799286)scale(0.08 -0.08)">
       <use xlink:href="#DejaVuSans-72"/>
       <use x="75.195312" xlink:href="#DejaVuSans-69"/>
       <use x="138.378906" xlink:href="#DejaVuSans-65"/>
       <use x="206.787109" xlink:href="#DejaVuSans-68"/>
      </g>
     </g>
    </g>
    <g id="xtick_6">
     <g id="line2d_9">
      <g>
       <use style="stroke:#000000;stroke-width:0.8;" x="343.495532" xlink:href="#m48ca2ed5df" y="136.762286"/>
      </g>
     </g>
     <g id="text_11">
      <!-- STS -->
      <g transform="translate(335.973657 149.841036)scale(0.08 -0.08)">
       <use xlink:href="#DejaVuSans-83"/>
       <use x="63.476562" xlink:href="#DejaVuSans-84"/>
       <use x="124.560547" xlink:href="#DejaVuSans-83"/>
      </g>
     </g>
    </g>
   </g>
   <g id="matplotlib.axis_4">
    <g id="ytick_4">
     <g id="line2d_10">
      <g>
       <use style="stroke:#000000;stroke-width:0.8;" x="230.229371" xlink:href="#m1f3f4e49ef" y="136.762286"/>
      </g>
     </g>
     <g id="text_12">
      <!-- 0 -->
      <g transform="translate(218.453749 141.62041)rotate(-45)scale(0.08 -0.08)">
       <use xlink:href="#DejaVuSans-48"/>
      </g>
     </g>
    </g>
    <g id="ytick_5">
     <g id="line2d_11">
      <g>
       <use style="stroke:#000000;stroke-width:0.8;" x="230.229371" xlink:href="#m1f3f4e49ef" y="90.824327"/>
      </g>
     </g>
     <g id="text_13">
      <!-- 50 -->
      <g transform="translate(214.854575 99.281624)rotate(-45)scale(0.08 -0.08)">
       <use xlink:href="#DejaVuSans-53"/>
       <use x="63.623047" xlink:href="#DejaVuSans-48"/>
      </g>
     </g>
    </g>
    <g id="ytick_6">
     <g id="line2d_12">
      <g>
       <use style="stroke:#000000;stroke-width:0.8;" x="230.229371" xlink:href="#m1f3f4e49ef" y="44.886367"/>
      </g>
     </g>
     <g id="text_14">
      <!-- 100 -->
      <g transform="translate(211.255402 56.942838)rotate(-45)scale(0.08 -0.08)">
       <use xlink:href="#DejaVuSans-49"/>
       <use x="63.623047" xlink:href="#DejaVuSans-48"/>
       <use x="127.246094" xlink:href="#DejaVuSans-48"/>
      </g>
     </g>
    </g>
    <g id="text_15">
     <!-- % of inconsistencies -->
     <g transform="translate(200.877389 139.43446)rotate(-90)scale(0.1 -0.1)">
      <use xlink:href="#DejaVuSans-37"/>
      <use x="95.019531" xlink:href="#DejaVuSans-32"/>
      <use x="126.806641" xlink:href="#DejaVuSans-111"/>
      <use x="187.988281" xlink:href="#DejaVuSans-102"/>
      <use x="223.193359" xlink:href="#DejaVuSans-32"/>
      <use x="254.980469" xlink:href="#DejaVuSans-105"/>
      <use x="282.763672" xlink:href="#DejaVuSans-110"/>
      <use x="346.142578" xlink:href="#DejaVuSans-99"/>
      <use x="401.123047" xlink:href="#DejaVuSans-111"/>
      <use x="462.304688" xlink:href="#DejaVuSans-110"/>
      <use x="525.683594" xlink:href="#DejaVuSans-115"/>
      <use x="577.783203" xlink:href="#DejaVuSans-105"/>
      <use x="605.566406" xlink:href="#DejaVuSans-115"/>
      <use x="657.666016" xlink:href="#DejaVuSans-116"/>
      <use x="696.875" xlink:href="#DejaVuSans-101"/>
      <use x="758.398438" xlink:href="#DejaVuSans-110"/>
      <use x="821.777344" xlink:href="#DejaVuSans-99"/>
      <use x="876.757812" xlink:href="#DejaVuSans-105"/>
      <use x="904.541016" xlink:href="#DejaVuSans-101"/>
      <use x="966.064453" xlink:href="#DejaVuSans-115"/>
     </g>
    </g>
   </g>
   <g id="patch_26">
    <path d="M 230.229371 136.762286 
L 230.229371 40.292571 
" style="fill:none;stroke:#000000;stroke-linecap:square;stroke-linejoin:miter;stroke-width:0.8;"/>
   </g>
   <g id="patch_27">
    <path d="M 363.538515 136.762286 
L 363.538515 40.292571 
" style="fill:none;stroke:#000000;stroke-linecap:square;stroke-linejoin:miter;stroke-width:0.8;"/>
   </g>
   <g id="patch_28">
    <path d="M 230.229371 136.762286 
L 363.538515 136.762286 
" style="fill:none;stroke:#000000;stroke-linecap:square;stroke-linejoin:miter;stroke-width:0.8;"/>
   </g>
   <g id="patch_29">
    <path d="M 230.229371 40.292571 
L 363.538515 40.292571 
" style="fill:none;stroke:#000000;stroke-linecap:square;stroke-linejoin:miter;stroke-width:0.8;"/>
   </g>
   <g id="text_16">
    <!-- rec_nn -->
    <g transform="translate(276.823318 34.292571)scale(0.12 -0.12)">
     <use xlink:href="#DejaVuSans-114"/>
     <use x="41.082031" xlink:href="#DejaVuSans-101"/>
     <use x="102.605469" xlink:href="#DejaVuSans-99"/>
     <use x="157.585938" xlink:href="#DejaVuSans-95"/>
     <use x="207.585938" xlink:href="#DejaVuSans-110"/>
     <use x="270.964844" xlink:href="#DejaVuSans-110"/>
    </g>
   </g>
  </g>
  <g id="axes_3">
   <g id="patch_30">
    <path d="M 413.370743 136.762286 
L 546.679886 136.762286 
L 546.679886 40.292571 
L 413.370743 40.292571 
z
" style="fill:#ffffff;"/>
   </g>
   <g id="patch_31">
    <path clip-path="url(#pbc1b230d22)" d="M 419.430249 136.762286 
L 447.397202 136.762286 
L 447.397202 116.419119 
L 419.430249 116.419119 
z
" style="fill:#ffc300;stroke:#ffffff;stroke-linejoin:miter;"/>
   </g>
   <g id="patch_32">
    <path clip-path="url(#pbc1b230d22)" d="M 466.041838 136.762286 
L 494.008791 136.762286 
L 494.008791 111.753244 
L 466.041838 111.753244 
z
" style="fill:#ffc300;stroke:#ffffff;stroke-linejoin:miter;"/>
   </g>
   <g id="patch_33">
    <path clip-path="url(#pbc1b230d22)" d="M 512.653426 136.762286 
L 540.62038 136.762286 
L 540.62038 117.374677 
L 512.653426 117.374677 
z
" style="fill:#ffc300;stroke:#ffffff;stroke-linejoin:miter;"/>
   </g>
   <g id="patch_34">
    <path clip-path="url(#pbc1b230d22)" d="M 419.430249 116.419119 
L 447.397202 116.419119 
L 447.397202 94.010043 
L 419.430249 94.010043 
z
" style="fill:#ff5733;stroke:#ffffff;stroke-linejoin:miter;"/>
   </g>
   <g id="patch_35">
    <path clip-path="url(#pbc1b230d22)" d="M 466.041838 111.753244 
L 494.008791 111.753244 
L 494.008791 87.15384 
L 466.041838 87.15384 
z
" style="fill:#ff5733;stroke:#ffffff;stroke-linejoin:miter;"/>
   </g>
   <g id="patch_36">
    <path clip-path="url(#pbc1b230d22)" d="M 512.653426 117.374677 
L 540.62038 117.374677 
L 540.62038 86.0895 
L 512.653426 86.0895 
z
" style="fill:#ff5733;stroke:#ffffff;stroke-linejoin:miter;"/>
   </g>
   <g id="patch_37">
    <path clip-path="url(#pbc1b230d22)" d="M 419.430249 94.010043 
L 447.397202 94.010043 
L 447.397202 44.886367 
L 419.430249 44.886367 
z
" style="fill:#c70039;stroke:#ffffff;stroke-linejoin:miter;"/>
   </g>
   <g id="patch_38">
    <path clip-path="url(#pbc1b230d22)" d="M 466.041838 87.15384 
L 494.008791 87.15384 
L 494.008791 44.886367 
L 466.041838 44.886367 
z
" style="fill:#c70039;stroke:#ffffff;stroke-linejoin:miter;"/>
   </g>
   <g id="patch_39">
    <path clip-path="url(#pbc1b230d22)" d="M 512.653426 86.0895 
L 540.62038 86.0895 
L 540.62038 44.886367 
L 512.653426 44.886367 
z
" style="fill:#c70039;stroke:#ffffff;stroke-linejoin:miter;"/>
   </g>
   <g id="matplotlib.axis_5">
    <g id="xtick_7">
     <g id="line2d_13">
      <g>
       <use style="stroke:#000000;stroke-width:0.8;" x="433.413726" xlink:href="#m48ca2ed5df" y="136.762286"/>
      </g>
     </g>
     <g id="text_17">
      <!-- AMAZON -->
      <g transform="translate(415.608726 149.841036)scale(0.08 -0.08)">
       <use xlink:href="#DejaVuSans-65"/>
       <use x="68.408203" xlink:href="#DejaVuSans-77"/>
       <use x="154.6875" xlink:href="#DejaVuSans-65"/>
       <use x="223.095703" xlink:href="#DejaVuSans-90"/>
       <use x="291.601562" xlink:href="#DejaVuSans-79"/>
       <use x="370.3125" xlink:href="#DejaVuSans-78"/>
      </g>
      <!-- REVIEWS -->
      <g transform="translate(415.168726 158.799286)scale(0.08 -0.08)">
       <use xlink:href="#DejaVuSans-82"/>
       <use x="69.482422" xlink:href="#DejaVuSans-69"/>
       <use x="132.666016" xlink:href="#DejaVuSans-86"/>
       <use x="201.074219" xlink:href="#DejaVuSans-73"/>
       <use x="230.566406" xlink:href="#DejaVuSans-69"/>
       <use x="293.75" xlink:href="#DejaVuSans-87"/>
       <use x="392.626953" xlink:href="#DejaVuSans-83"/>
      </g>
     </g>
    </g>
    <g id="xtick_8">
     <g id="line2d_14">
      <g>
       <use style="stroke:#000000;stroke-width:0.8;" x="480.025314" xlink:href="#m48ca2ed5df" y="136.762286"/>
      </g>
     </g>
     <g id="text_18">
      <!-- NEWS -->
      <g transform="translate(468.010939 149.841036)scale(0.08 -0.08)">
       <use xlink:href="#DejaVuSans-78"/>
       <use x="74.804688" xlink:href="#DejaVuSans-69"/>
       <use x="137.988281" xlink:href="#DejaVuSans-87"/>
       <use x="236.865234" xlink:href="#DejaVuSans-83"/>
      </g>
      <!-- HEAD -->
      <g transform="translate(468.673439 158.799286)scale(0.08 -0.08)">
       <use xlink:href="#DejaVuSans-72"/>
       <use x="75.195312" xlink:href="#DejaVuSans-69"/>
       <use x="138.378906" xlink:href="#DejaVuSans-65"/>
       <use x="206.787109" xlink:href="#DejaVuSans-68"/>
      </g>
     </g>
    </g>
    <g id="xtick_9">
     <g id="line2d_15">
      <g>
       <use style="stroke:#000000;stroke-width:0.8;" x="526.636903" xlink:href="#m48ca2ed5df" y="136.762286"/>
      </g>
     </g>
     <g id="text_19">
      <!-- STS -->
      <g transform="translate(519.115028 149.841036)scale(0.08 -0.08)">
       <use xlink:href="#DejaVuSans-83"/>
       <use x="63.476562" xlink:href="#DejaVuSans-84"/>
       <use x="124.560547" xlink:href="#DejaVuSans-83"/>
      </g>
     </g>
    </g>
   </g>
   <g id="matplotlib.axis_6">
    <g id="ytick_7">
     <g id="line2d_16">
      <g>
       <use style="stroke:#000000;stroke-width:0.8;" x="413.370743" xlink:href="#m1f3f4e49ef" y="136.762286"/>
      </g>
     </g>
     <g id="text_20">
      <!-- 0 -->
      <g transform="translate(401.59512 141.62041)rotate(-45)scale(0.08 -0.08)">
       <use xlink:href="#DejaVuSans-48"/>
      </g>
     </g>
    </g>
    <g id="ytick_8">
     <g id="line2d_17">
      <g>
       <use style="stroke:#000000;stroke-width:0.8;" x="413.370743" xlink:href="#m1f3f4e49ef" y="90.824327"/>
      </g>
     </g>
     <g id="text_21">
      <!-- 50 -->
      <g transform="translate(397.995947 99.281624)rotate(-45)scale(0.08 -0.08)">
       <use xlink:href="#DejaVuSans-53"/>
       <use x="63.623047" xlink:href="#DejaVuSans-48"/>
      </g>
     </g>
    </g>
    <g id="ytick_9">
     <g id="line2d_18">
      <g>
       <use style="stroke:#000000;stroke-width:0.8;" x="413.370743" xlink:href="#m1f3f4e49ef" y="44.886367"/>
      </g>
     </g>
     <g id="text_22">
      <!-- 100 -->
      <g transform="translate(394.396773 56.942838)rotate(-45)scale(0.08 -0.08)">
       <use xlink:href="#DejaVuSans-49"/>
       <use x="63.623047" xlink:href="#DejaVuSans-48"/>
       <use x="127.246094" xlink:href="#DejaVuSans-48"/>
      </g>
     </g>
    </g>
    <g id="text_23">
     <!-- % of inconsistencies -->
     <g transform="translate(384.01876 139.43446)rotate(-90)scale(0.1 -0.1)">
      <use xlink:href="#DejaVuSans-37"/>
      <use x="95.019531" xlink:href="#DejaVuSans-32"/>
      <use x="126.806641" xlink:href="#DejaVuSans-111"/>
      <use x="187.988281" xlink:href="#DejaVuSans-102"/>
      <use x="223.193359" xlink:href="#DejaVuSans-32"/>
      <use x="254.980469" xlink:href="#DejaVuSans-105"/>
      <use x="282.763672" xlink:href="#DejaVuSans-110"/>
      <use x="346.142578" xlink:href="#DejaVuSans-99"/>
      <use x="401.123047" xlink:href="#DejaVuSans-111"/>
      <use x="462.304688" xlink:href="#DejaVuSans-110"/>
      <use x="525.683594" xlink:href="#DejaVuSans-115"/>
      <use x="577.783203" xlink:href="#DejaVuSans-105"/>
      <use x="605.566406" xlink:href="#DejaVuSans-115"/>
      <use x="657.666016" xlink:href="#DejaVuSans-116"/>
      <use x="696.875" xlink:href="#DejaVuSans-101"/>
      <use x="758.398438" xlink:href="#DejaVuSans-110"/>
      <use x="821.777344" xlink:href="#DejaVuSans-99"/>
      <use x="876.757812" xlink:href="#DejaVuSans-105"/>
      <use x="904.541016" xlink:href="#DejaVuSans-101"/>
      <use x="966.064453" xlink:href="#DejaVuSans-115"/>
     </g>
    </g>
   </g>
   <g id="patch_40">
    <path d="M 413.370743 136.762286 
L 413.370743 40.292571 
" style="fill:none;stroke:#000000;stroke-linecap:square;stroke-linejoin:miter;stroke-width:0.8;"/>
   </g>
   <g id="patch_41">
    <path d="M 546.679886 136.762286 
L 546.679886 40.292571 
" style="fill:none;stroke:#000000;stroke-linecap:square;stroke-linejoin:miter;stroke-width:0.8;"/>
   </g>
   <g id="patch_42">
    <path d="M 413.370743 136.762286 
L 546.679886 136.762286 
" style="fill:none;stroke:#000000;stroke-linecap:square;stroke-linejoin:miter;stroke-width:0.8;"/>
   </g>
   <g id="patch_43">
    <path d="M 413.370743 40.292571 
L 546.679886 40.292571 
" style="fill:none;stroke:#000000;stroke-linecap:square;stroke-linejoin:miter;stroke-width:0.8;"/>
   </g>
   <g id="text_24">
    <!-- senticnet -->
    <g transform="translate(452.240627 34.292571)scale(0.12 -0.12)">
     <use xlink:href="#DejaVuSans-115"/>
     <use x="52.099609" xlink:href="#DejaVuSans-101"/>
     <use x="113.623047" xlink:href="#DejaVuSans-110"/>
     <use x="177.001953" xlink:href="#DejaVuSans-116"/>
     <use x="216.210938" xlink:href="#DejaVuSans-105"/>
     <use x="243.994141" xlink:href="#DejaVuSans-99"/>
     <use x="298.974609" xlink:href="#DejaVuSans-110"/>
     <use x="362.353516" xlink:href="#DejaVuSans-101"/>
     <use x="423.876953" xlink:href="#DejaVuSans-116"/>
    </g>
   </g>
  </g>
  <g id="axes_4">
   <g id="patch_44">
    <path d="M 596.512114 136.762286 
L 729.821257 136.762286 
L 729.821257 40.292571 
L 596.512114 40.292571 
z
" style="fill:#ffffff;"/>
   </g>
   <g id="patch_45">
    <path clip-path="url(#pf62e199dd3)" d="M 602.57162 136.762286 
L 630.538574 136.762286 
L 630.538574 136.762286 
L 602.57162 136.762286 
z
" style="fill:#ffc300;stroke:#ffffff;stroke-linejoin:miter;"/>
   </g>
   <g id="patch_46">
    <path clip-path="url(#pf62e199dd3)" d="M 649.183209 136.762286 
L 677.150162 136.762286 
L 677.150162 136.762286 
L 649.183209 136.762286 
z
" style="fill:#ffc300;stroke:#ffffff;stroke-linejoin:miter;"/>
   </g>
   <g id="patch_47">
    <path clip-path="url(#pf62e199dd3)" d="M 695.794798 136.762286 
L 723.761751 136.762286 
L 723.761751 136.762286 
L 695.794798 136.762286 
z
" style="fill:#ffc300;stroke:#ffffff;stroke-linejoin:miter;"/>
   </g>
   <g id="patch_48">
    <path clip-path="url(#pf62e199dd3)" d="M 602.57162 136.762286 
L 630.538574 136.762286 
L 630.538574 133.916189 
L 602.57162 133.916189 
z
" style="fill:#ff5733;stroke:#ffffff;stroke-linejoin:miter;"/>
   </g>
   <g id="patch_49">
    <path clip-path="url(#pf62e199dd3)" d="M 649.183209 136.762286 
L 677.150162 136.762286 
L 677.150162 135.117974 
L 649.183209 135.117974 
z
" style="fill:#ff5733;stroke:#ffffff;stroke-linejoin:miter;"/>
   </g>
   <g id="patch_50">
    <path clip-path="url(#pf62e199dd3)" d="M 695.794798 136.762286 
L 723.761751 136.762286 
L 723.761751 130.196412 
L 695.794798 130.196412 
z
" style="fill:#ff5733;stroke:#ffffff;stroke-linejoin:miter;"/>
   </g>
   <g id="patch_51">
    <path clip-path="url(#pf62e199dd3)" d="M 602.57162 133.916189 
L 630.538574 133.916189 
L 630.538574 44.886367 
L 602.57162 44.886367 
z
" style="fill:#c70039;stroke:#ffffff;stroke-linejoin:miter;"/>
   </g>
   <g id="patch_52">
    <path clip-path="url(#pf62e199dd3)" d="M 649.183209 135.117974 
L 677.150162 135.117974 
L 677.150162 44.886367 
L 649.183209 44.886367 
z
" style="fill:#c70039;stroke:#ffffff;stroke-linejoin:miter;"/>
   </g>
   <g id="patch_53">
    <path clip-path="url(#pf62e199dd3)" d="M 695.794798 130.196412 
L 723.761751 130.196412 
L 723.761751 44.886367 
L 695.794798 44.886367 
z
" style="fill:#c70039;stroke:#ffffff;stroke-linejoin:miter;"/>
   </g>
   <g id="matplotlib.axis_7">
    <g id="xtick_10">
     <g id="line2d_19">
      <g>
       <use style="stroke:#000000;stroke-width:0.8;" x="616.555097" xlink:href="#m48ca2ed5df" y="136.762286"/>
      </g>
     </g>
     <g id="text_25">
      <!-- AMAZON -->
      <g transform="translate(598.750097 149.841036)scale(0.08 -0.08)">
       <use xlink:href="#DejaVuSans-65"/>
       <use x="68.408203" xlink:href="#DejaVuSans-77"/>
       <use x="154.6875" xlink:href="#DejaVuSans-65"/>
       <use x="223.095703" xlink:href="#DejaVuSans-90"/>
       <use x="291.601562" xlink:href="#DejaVuSans-79"/>
       <use x="370.3125" xlink:href="#DejaVuSans-78"/>
      </g>
      <!-- REVIEWS -->
      <g transform="translate(598.310097 158.799286)scale(0.08 -0.08)">
       <use xlink:href="#DejaVuSans-82"/>
       <use x="69.482422" xlink:href="#DejaVuSans-69"/>
       <use x="132.666016" xlink:href="#DejaVuSans-86"/>
       <use x="201.074219" xlink:href="#DejaVuSans-73"/>
       <use x="230.566406" xlink:href="#DejaVuSans-69"/>
       <use x="293.75" xlink:href="#DejaVuSans-87"/>
       <use x="392.626953" xlink:href="#DejaVuSans-83"/>
      </g>
     </g>
    </g>
    <g id="xtick_11">
     <g id="line2d_20">
      <g>
       <use style="stroke:#000000;stroke-width:0.8;" x="663.166686" xlink:href="#m48ca2ed5df" y="136.762286"/>
      </g>
     </g>
     <g id="text_26">
      <!-- NEWS -->
      <g transform="translate(651.152311 149.841036)scale(0.08 -0.08)">
       <use xlink:href="#DejaVuSans-78"/>
       <use x="74.804688" xlink:href="#DejaVuSans-69"/>
       <use x="137.988281" xlink:href="#DejaVuSans-87"/>
       <use x="236.865234" xlink:href="#DejaVuSans-83"/>
      </g>
      <!-- HEAD -->
      <g transform="translate(651.814811 158.799286)scale(0.08 -0.08)">
       <use xlink:href="#DejaVuSans-72"/>
       <use x="75.195312" xlink:href="#DejaVuSans-69"/>
       <use x="138.378906" xlink:href="#DejaVuSans-65"/>
       <use x="206.787109" xlink:href="#DejaVuSans-68"/>
      </g>
     </g>
    </g>
    <g id="xtick_12">
     <g id="line2d_21">
      <g>
       <use style="stroke:#000000;stroke-width:0.8;" x="709.778274" xlink:href="#m48ca2ed5df" y="136.762286"/>
      </g>
     </g>
     <g id="text_27">
      <!-- STS -->
      <g transform="translate(702.256399 149.841036)scale(0.08 -0.08)">
       <use xlink:href="#DejaVuSans-83"/>
       <use x="63.476562" xlink:href="#DejaVuSans-84"/>
       <use x="124.560547" xlink:href="#DejaVuSans-83"/>
      </g>
     </g>
    </g>
   </g>
   <g id="matplotlib.axis_8">
    <g id="ytick_10">
     <g id="line2d_22">
      <g>
       <use style="stroke:#000000;stroke-width:0.8;" x="596.512114" xlink:href="#m1f3f4e49ef" y="136.762286"/>
      </g>
     </g>
     <g id="text_28">
      <!-- 0 -->
      <g transform="translate(584.736491 141.62041)rotate(-45)scale(0.08 -0.08)">
       <use xlink:href="#DejaVuSans-48"/>
      </g>
     </g>
    </g>
    <g id="ytick_11">
     <g id="line2d_23">
      <g>
       <use style="stroke:#000000;stroke-width:0.8;" x="596.512114" xlink:href="#m1f3f4e49ef" y="90.824327"/>
      </g>
     </g>
     <g id="text_29">
      <!-- 50 -->
      <g transform="translate(581.137318 99.281624)rotate(-45)scale(0.08 -0.08)">
       <use xlink:href="#DejaVuSans-53"/>
       <use x="63.623047" xlink:href="#DejaVuSans-48"/>
      </g>
     </g>
    </g>
    <g id="ytick_12">
     <g id="line2d_24">
      <g>
       <use style="stroke:#000000;stroke-width:0.8;" x="596.512114" xlink:href="#m1f3f4e49ef" y="44.886367"/>
      </g>
     </g>
     <g id="text_30">
      <!-- 100 -->
      <g transform="translate(577.538144 56.942838)rotate(-45)scale(0.08 -0.08)">
       <use xlink:href="#DejaVuSans-49"/>
       <use x="63.623047" xlink:href="#DejaVuSans-48"/>
       <use x="127.246094" xlink:href="#DejaVuSans-48"/>
      </g>
     </g>
    </g>
    <g id="text_31">
     <!-- % of inconsistencies -->
     <g transform="translate(567.160131 139.43446)rotate(-90)scale(0.1 -0.1)">
      <use xlink:href="#DejaVuSans-37"/>
      <use x="95.019531" xlink:href="#DejaVuSans-32"/>
      <use x="126.806641" xlink:href="#DejaVuSans-111"/>
      <use x="187.988281" xlink:href="#DejaVuSans-102"/>
      <use x="223.193359" xlink:href="#DejaVuSans-32"/>
      <use x="254.980469" xlink:href="#DejaVuSans-105"/>
      <use x="282.763672" xlink:href="#DejaVuSans-110"/>
      <use x="346.142578" xlink:href="#DejaVuSans-99"/>
      <use x="401.123047" xlink:href="#DejaVuSans-111"/>
      <use x="462.304688" xlink:href="#DejaVuSans-110"/>
      <use x="525.683594" xlink:href="#DejaVuSans-115"/>
      <use x="577.783203" xlink:href="#DejaVuSans-105"/>
      <use x="605.566406" xlink:href="#DejaVuSans-115"/>
      <use x="657.666016" xlink:href="#DejaVuSans-116"/>
      <use x="696.875" xlink:href="#DejaVuSans-101"/>
      <use x="758.398438" xlink:href="#DejaVuSans-110"/>
      <use x="821.777344" xlink:href="#DejaVuSans-99"/>
      <use x="876.757812" xlink:href="#DejaVuSans-105"/>
      <use x="904.541016" xlink:href="#DejaVuSans-101"/>
      <use x="966.064453" xlink:href="#DejaVuSans-115"/>
     </g>
    </g>
   </g>
   <g id="patch_54">
    <path d="M 596.512114 136.762286 
L 596.512114 40.292571 
" style="fill:none;stroke:#000000;stroke-linecap:square;stroke-linejoin:miter;stroke-width:0.8;"/>
   </g>
   <g id="patch_55">
    <path d="M 729.821257 136.762286 
L 729.821257 40.292571 
" style="fill:none;stroke:#000000;stroke-linecap:square;stroke-linejoin:miter;stroke-width:0.8;"/>
   </g>
   <g id="patch_56">
    <path d="M 596.512114 136.762286 
L 729.821257 136.762286 
" style="fill:none;stroke:#000000;stroke-linecap:square;stroke-linejoin:miter;stroke-width:0.8;"/>
   </g>
   <g id="patch_57">
    <path d="M 596.512114 40.292571 
L 729.821257 40.292571 
" style="fill:none;stroke:#000000;stroke-linecap:square;stroke-linejoin:miter;stroke-width:0.8;"/>
   </g>
   <g id="text_32">
    <!-- sentiwordnet -->
    <defs>
     <path d="M 4.203125 54.6875 
L 13.1875 54.6875 
L 24.421875 12.015625 
L 35.59375 54.6875 
L 46.1875 54.6875 
L 57.421875 12.015625 
L 68.609375 54.6875 
L 77.59375 54.6875 
L 63.28125 0 
L 52.6875 0 
L 40.921875 44.828125 
L 29.109375 0 
L 18.5 0 
z
" id="DejaVuSans-119"/>
     <path d="M 45.40625 46.390625 
L 45.40625 75.984375 
L 54.390625 75.984375 
L 54.390625 0 
L 45.40625 0 
L 45.40625 8.203125 
Q 42.578125 3.328125 38.25 0.953125 
Q 33.9375 -1.421875 27.875 -1.421875 
Q 17.96875 -1.421875 11.734375 6.484375 
Q 5.515625 14.40625 5.515625 27.296875 
Q 5.515625 40.1875 11.734375 48.09375 
Q 17.96875 56 27.875 56 
Q 33.9375 56 38.25 53.625 
Q 42.578125 51.265625 45.40625 46.390625 
z
M 14.796875 27.296875 
Q 14.796875 17.390625 18.875 11.75 
Q 22.953125 6.109375 30.078125 6.109375 
Q 37.203125 6.109375 41.296875 11.75 
Q 45.40625 17.390625 45.40625 27.296875 
Q 45.40625 37.203125 41.296875 42.84375 
Q 37.203125 48.484375 30.078125 48.484375 
Q 22.953125 48.484375 18.875 42.84375 
Q 14.796875 37.203125 14.796875 27.296875 
z
" id="DejaVuSans-100"/>
    </defs>
    <g transform="translate(623.828248 34.292571)scale(0.12 -0.12)">
     <use xlink:href="#DejaVuSans-115"/>
     <use x="52.099609" xlink:href="#DejaVuSans-101"/>
     <use x="113.623047" xlink:href="#DejaVuSans-110"/>
     <use x="177.001953" xlink:href="#DejaVuSans-116"/>
     <use x="216.210938" xlink:href="#DejaVuSans-105"/>
     <use x="243.994141" xlink:href="#DejaVuSans-119"/>
     <use x="325.78125" xlink:href="#DejaVuSans-111"/>
     <use x="386.962891" xlink:href="#DejaVuSans-114"/>
     <use x="428.060547" xlink:href="#DejaVuSans-100"/>
     <use x="491.537109" xlink:href="#DejaVuSans-110"/>
     <use x="554.916016" xlink:href="#DejaVuSans-101"/>
     <use x="616.439453" xlink:href="#DejaVuSans-116"/>
    </g>
   </g>
  </g>
  <g id="axes_5">
   <g id="patch_58">
    <path d="M 779.653485 136.762286 
L 912.962629 136.762286 
L 912.962629 40.292571 
L 779.653485 40.292571 
z
" style="fill:#ffffff;"/>
   </g>
   <g id="patch_59">
    <path clip-path="url(#p787d332959)" d="M 785.712992 136.762286 
L 813.679945 136.762286 
L 813.679945 109.536226 
L 785.712992 109.536226 
z
" style="fill:#ffc300;stroke:#ffffff;stroke-linejoin:miter;"/>
   </g>
   <g id="patch_60">
    <path clip-path="url(#p787d332959)" d="M 832.32458 136.762286 
L 860.291533 136.762286 
L 860.291533 113.164683 
L 832.32458 113.164683 
z
" style="fill:#ffc300;stroke:#ffffff;stroke-linejoin:miter;"/>
   </g>
   <g id="patch_61">
    <path clip-path="url(#p787d332959)" d="M 878.936169 136.762286 
L 906.903122 136.762286 
L 906.903122 98.102188 
L 878.936169 98.102188 
z
" style="fill:#ffc300;stroke:#ffffff;stroke-linejoin:miter;"/>
   </g>
   <g id="patch_62">
    <path clip-path="url(#p787d332959)" d="M 785.712992 109.536226 
L 813.679945 109.536226 
L 813.679945 86.228629 
L 785.712992 86.228629 
z
" style="fill:#ff5733;stroke:#ffffff;stroke-linejoin:miter;"/>
   </g>
   <g id="patch_63">
    <path clip-path="url(#p787d332959)" d="M 832.32458 113.164683 
L 860.291533 113.164683 
L 860.291533 90.726396 
L 832.32458 90.726396 
z
" style="fill:#ff5733;stroke:#ffffff;stroke-linejoin:miter;"/>
   </g>
   <g id="patch_64">
    <path clip-path="url(#p787d332959)" d="M 878.936169 98.102188 
L 906.903122 98.102188 
L 906.903122 74.452097 
L 878.936169 74.452097 
z
" style="fill:#ff5733;stroke:#ffffff;stroke-linejoin:miter;"/>
   </g>
   <g id="patch_65">
    <path clip-path="url(#p787d332959)" d="M 785.712992 86.228629 
L 813.679945 86.228629 
L 813.679945 44.886367 
L 785.712992 44.886367 
z
" style="fill:#c70039;stroke:#ffffff;stroke-linejoin:miter;"/>
   </g>
   <g id="patch_66">
    <path clip-path="url(#p787d332959)" d="M 832.32458 90.726396 
L 860.291533 90.726396 
L 860.291533 44.886367 
L 832.32458 44.886367 
z
" style="fill:#c70039;stroke:#ffffff;stroke-linejoin:miter;"/>
   </g>
   <g id="patch_67">
    <path clip-path="url(#p787d332959)" d="M 878.936169 74.452097 
L 906.903122 74.452097 
L 906.903122 44.886367 
L 878.936169 44.886367 
z
" style="fill:#c70039;stroke:#ffffff;stroke-linejoin:miter;"/>
   </g>
   <g id="matplotlib.axis_9">
    <g id="xtick_13">
     <g id="line2d_25">
      <g>
       <use style="stroke:#000000;stroke-width:0.8;" x="799.696468" xlink:href="#m48ca2ed5df" y="136.762286"/>
      </g>
     </g>
     <g id="text_33">
      <!-- AMAZON -->
      <g transform="translate(781.891468 149.841036)scale(0.08 -0.08)">
       <use xlink:href="#DejaVuSans-65"/>
       <use x="68.408203" xlink:href="#DejaVuSans-77"/>
       <use x="154.6875" xlink:href="#DejaVuSans-65"/>
       <use x="223.095703" xlink:href="#DejaVuSans-90"/>
       <use x="291.601562" xlink:href="#DejaVuSans-79"/>
       <use x="370.3125" xlink:href="#DejaVuSans-78"/>
      </g>
      <!-- REVIEWS -->
      <g transform="translate(781.451468 158.799286)scale(0.08 -0.08)">
       <use xlink:href="#DejaVuSans-82"/>
       <use x="69.482422" xlink:href="#DejaVuSans-69"/>
       <use x="132.666016" xlink:href="#DejaVuSans-86"/>
       <use x="201.074219" xlink:href="#DejaVuSans-73"/>
       <use x="230.566406" xlink:href="#DejaVuSans-69"/>
       <use x="293.75" xlink:href="#DejaVuSans-87"/>
       <use x="392.626953" xlink:href="#DejaVuSans-83"/>
      </g>
     </g>
    </g>
    <g id="xtick_14">
     <g id="line2d_26">
      <g>
       <use style="stroke:#000000;stroke-width:0.8;" x="846.308057" xlink:href="#m48ca2ed5df" y="136.762286"/>
      </g>
     </g>
     <g id="text_34">
      <!-- NEWS -->
      <g transform="translate(834.293682 149.841036)scale(0.08 -0.08)">
       <use xlink:href="#DejaVuSans-78"/>
       <use x="74.804688" xlink:href="#DejaVuSans-69"/>
       <use x="137.988281" xlink:href="#DejaVuSans-87"/>
       <use x="236.865234" xlink:href="#DejaVuSans-83"/>
      </g>
      <!-- HEAD -->
      <g transform="translate(834.956182 158.799286)scale(0.08 -0.08)">
       <use xlink:href="#DejaVuSans-72"/>
       <use x="75.195312" xlink:href="#DejaVuSans-69"/>
       <use x="138.378906" xlink:href="#DejaVuSans-65"/>
       <use x="206.787109" xlink:href="#DejaVuSans-68"/>
      </g>
     </g>
    </g>
    <g id="xtick_15">
     <g id="line2d_27">
      <g>
       <use style="stroke:#000000;stroke-width:0.8;" x="892.919646" xlink:href="#m48ca2ed5df" y="136.762286"/>
      </g>
     </g>
     <g id="text_35">
      <!-- STS -->
      <g transform="translate(885.397771 149.841036)scale(0.08 -0.08)">
       <use xlink:href="#DejaVuSans-83"/>
       <use x="63.476562" xlink:href="#DejaVuSans-84"/>
       <use x="124.560547" xlink:href="#DejaVuSans-83"/>
      </g>
     </g>
    </g>
   </g>
   <g id="matplotlib.axis_10">
    <g id="ytick_13">
     <g id="line2d_28">
      <g>
       <use style="stroke:#000000;stroke-width:0.8;" x="779.653485" xlink:href="#m1f3f4e49ef" y="136.762286"/>
      </g>
     </g>
     <g id="text_36">
      <!-- 0 -->
      <g transform="translate(767.877863 141.62041)rotate(-45)scale(0.08 -0.08)">
       <use xlink:href="#DejaVuSans-48"/>
      </g>
     </g>
    </g>
    <g id="ytick_14">
     <g id="line2d_29">
      <g>
       <use style="stroke:#000000;stroke-width:0.8;" x="779.653485" xlink:href="#m1f3f4e49ef" y="90.824327"/>
      </g>
     </g>
     <g id="text_37">
      <!-- 50 -->
      <g transform="translate(764.278689 99.281624)rotate(-45)scale(0.08 -0.08)">
       <use xlink:href="#DejaVuSans-53"/>
       <use x="63.623047" xlink:href="#DejaVuSans-48"/>
      </g>
     </g>
    </g>
    <g id="ytick_15">
     <g id="line2d_30">
      <g>
       <use style="stroke:#000000;stroke-width:0.8;" x="779.653485" xlink:href="#m1f3f4e49ef" y="44.886367"/>
      </g>
     </g>
     <g id="text_38">
      <!-- 100 -->
      <g transform="translate(760.679516 56.942838)rotate(-45)scale(0.08 -0.08)">
       <use xlink:href="#DejaVuSans-49"/>
       <use x="63.623047" xlink:href="#DejaVuSans-48"/>
       <use x="127.246094" xlink:href="#DejaVuSans-48"/>
      </g>
     </g>
    </g>
    <g id="text_39">
     <!-- % of inconsistencies -->
     <g transform="translate(750.301503 139.43446)rotate(-90)scale(0.1 -0.1)">
      <use xlink:href="#DejaVuSans-37"/>
      <use x="95.019531" xlink:href="#DejaVuSans-32"/>
      <use x="126.806641" xlink:href="#DejaVuSans-111"/>
      <use x="187.988281" xlink:href="#DejaVuSans-102"/>
      <use x="223.193359" xlink:href="#DejaVuSans-32"/>
      <use x="254.980469" xlink:href="#DejaVuSans-105"/>
      <use x="282.763672" xlink:href="#DejaVuSans-110"/>
      <use x="346.142578" xlink:href="#DejaVuSans-99"/>
      <use x="401.123047" xlink:href="#DejaVuSans-111"/>
      <use x="462.304688" xlink:href="#DejaVuSans-110"/>
      <use x="525.683594" xlink:href="#DejaVuSans-115"/>
      <use x="577.783203" xlink:href="#DejaVuSans-105"/>
      <use x="605.566406" xlink:href="#DejaVuSans-115"/>
      <use x="657.666016" xlink:href="#DejaVuSans-116"/>
      <use x="696.875" xlink:href="#DejaVuSans-101"/>
      <use x="758.398438" xlink:href="#DejaVuSans-110"/>
      <use x="821.777344" xlink:href="#DejaVuSans-99"/>
      <use x="876.757812" xlink:href="#DejaVuSans-105"/>
      <use x="904.541016" xlink:href="#DejaVuSans-101"/>
      <use x="966.064453" xlink:href="#DejaVuSans-115"/>
     </g>
    </g>
   </g>
   <g id="patch_68">
    <path d="M 779.653485 136.762286 
L 779.653485 40.292571 
" style="fill:none;stroke:#000000;stroke-linecap:square;stroke-linejoin:miter;stroke-width:0.8;"/>
   </g>
   <g id="patch_69">
    <path d="M 912.962629 136.762286 
L 912.962629 40.292571 
" style="fill:none;stroke:#000000;stroke-linecap:square;stroke-linejoin:miter;stroke-width:0.8;"/>
   </g>
   <g id="patch_70">
    <path d="M 779.653485 136.762286 
L 912.962629 136.762286 
" style="fill:none;stroke:#000000;stroke-linecap:square;stroke-linejoin:miter;stroke-width:0.8;"/>
   </g>
   <g id="patch_71">
    <path d="M 779.653485 40.292571 
L 912.962629 40.292571 
" style="fill:none;stroke:#000000;stroke-linecap:square;stroke-linejoin:miter;stroke-width:0.8;"/>
   </g>
   <g id="text_40">
    <!-- text_cnn -->
    <defs>
     <path d="M 54.890625 54.6875 
L 35.109375 28.078125 
L 55.90625 0 
L 45.3125 0 
L 29.390625 21.484375 
L 13.484375 0 
L 2.875 0 
L 24.125 28.609375 
L 4.6875 54.6875 
L 15.28125 54.6875 
L 29.78125 35.203125 
L 44.28125 54.6875 
z
" id="DejaVuSans-120"/>
    </defs>
    <g transform="translate(820.457432 34.292571)scale(0.12 -0.12)">
     <use xlink:href="#DejaVuSans-116"/>
     <use x="39.208984" xlink:href="#DejaVuSans-101"/>
     <use x="100.716797" xlink:href="#DejaVuSans-120"/>
     <use x="159.896484" xlink:href="#DejaVuSans-116"/>
     <use x="199.105469" xlink:href="#DejaVuSans-95"/>
     <use x="249.105469" xlink:href="#DejaVuSans-99"/>
     <use x="304.085938" xlink:href="#DejaVuSans-110"/>
     <use x="367.464844" xlink:href="#DejaVuSans-110"/>
    </g>
   </g>
  </g>
  <g id="axes_6">
   <g id="patch_72">
    <path d="M 962.794856 136.762286 
L 1096.104 136.762286 
L 1096.104 40.292571 
L 962.794856 40.292571 
z
" style="fill:#ffffff;"/>
   </g>
   <g id="patch_73">
    <path clip-path="url(#p25ccd04d41)" d="M 968.854363 136.762286 
L 996.821316 136.762286 
L 996.821316 136.762286 
L 968.854363 136.762286 
z
" style="fill:#ffc300;stroke:#ffffff;stroke-linejoin:miter;"/>
   </g>
   <g id="patch_74">
    <path clip-path="url(#p25ccd04d41)" d="M 1015.465952 136.762286 
L 1043.432905 136.762286 
L 1043.432905 136.762286 
L 1015.465952 136.762286 
z
" style="fill:#ffc300;stroke:#ffffff;stroke-linejoin:miter;"/>
   </g>
   <g id="patch_75">
    <path clip-path="url(#p25ccd04d41)" d="M 1062.07754 136.762286 
L 1090.044493 136.762286 
L 1090.044493 136.762286 
L 1062.07754 136.762286 
z
" style="fill:#ffc300;stroke:#ffffff;stroke-linejoin:miter;"/>
   </g>
   <g id="patch_76">
    <path clip-path="url(#p25ccd04d41)" d="M 968.854363 136.762286 
L 996.821316 136.762286 
L 996.821316 133.916189 
L 968.854363 133.916189 
z
" style="fill:#ff5733;stroke:#ffffff;stroke-linejoin:miter;"/>
   </g>
   <g id="patch_77">
    <path clip-path="url(#p25ccd04d41)" d="M 1015.465952 136.762286 
L 1043.432905 136.762286 
L 1043.432905 135.117974 
L 1015.465952 135.117974 
z
" style="fill:#ff5733;stroke:#ffffff;stroke-linejoin:miter;"/>
   </g>
   <g id="patch_78">
    <path clip-path="url(#p25ccd04d41)" d="M 1062.07754 136.762286 
L 1090.044493 136.762286 
L 1090.044493 130.196412 
L 1062.07754 130.196412 
z
" style="fill:#ff5733;stroke:#ffffff;stroke-linejoin:miter;"/>
   </g>
   <g id="patch_79">
    <path clip-path="url(#p25ccd04d41)" d="M 968.854363 133.916189 
L 996.821316 133.916189 
L 996.821316 44.886367 
L 968.854363 44.886367 
z
" style="fill:#c70039;stroke:#ffffff;stroke-linejoin:miter;"/>
   </g>
   <g id="patch_80">
    <path clip-path="url(#p25ccd04d41)" d="M 1015.465952 135.117974 
L 1043.432905 135.117974 
L 1043.432905 44.886367 
L 1015.465952 44.886367 
z
" style="fill:#c70039;stroke:#ffffff;stroke-linejoin:miter;"/>
   </g>
   <g id="patch_81">
    <path clip-path="url(#p25ccd04d41)" d="M 1062.07754 130.196412 
L 1090.044493 130.196412 
L 1090.044493 44.886367 
L 1062.07754 44.886367 
z
" style="fill:#c70039;stroke:#ffffff;stroke-linejoin:miter;"/>
   </g>
   <g id="matplotlib.axis_11">
    <g id="xtick_16">
     <g id="line2d_31">
      <g>
       <use style="stroke:#000000;stroke-width:0.8;" x="982.837839" xlink:href="#m48ca2ed5df" y="136.762286"/>
      </g>
     </g>
     <g id="text_41">
      <!-- AMAZON -->
      <g transform="translate(965.032839 149.841036)scale(0.08 -0.08)">
       <use xlink:href="#DejaVuSans-65"/>
       <use x="68.408203" xlink:href="#DejaVuSans-77"/>
       <use x="154.6875" xlink:href="#DejaVuSans-65"/>
       <use x="223.095703" xlink:href="#DejaVuSans-90"/>
       <use x="291.601562" xlink:href="#DejaVuSans-79"/>
       <use x="370.3125" xlink:href="#DejaVuSans-78"/>
      </g>
      <!-- REVIEWS -->
      <g transform="translate(964.592839 158.799286)scale(0.08 -0.08)">
       <use xlink:href="#DejaVuSans-82"/>
       <use x="69.482422" xlink:href="#DejaVuSans-69"/>
       <use x="132.666016" xlink:href="#DejaVuSans-86"/>
       <use x="201.074219" xlink:href="#DejaVuSans-73"/>
       <use x="230.566406" xlink:href="#DejaVuSans-69"/>
       <use x="293.75" xlink:href="#DejaVuSans-87"/>
       <use x="392.626953" xlink:href="#DejaVuSans-83"/>
      </g>
     </g>
    </g>
    <g id="xtick_17">
     <g id="line2d_32">
      <g>
       <use style="stroke:#000000;stroke-width:0.8;" x="1029.449428" xlink:href="#m48ca2ed5df" y="136.762286"/>
      </g>
     </g>
     <g id="text_42">
      <!-- NEWS -->
      <g transform="translate(1017.435053 149.841036)scale(0.08 -0.08)">
       <use xlink:href="#DejaVuSans-78"/>
       <use x="74.804688" xlink:href="#DejaVuSans-69"/>
       <use x="137.988281" xlink:href="#DejaVuSans-87"/>
       <use x="236.865234" xlink:href="#DejaVuSans-83"/>
      </g>
      <!-- HEAD -->
      <g transform="translate(1018.097553 158.799286)scale(0.08 -0.08)">
       <use xlink:href="#DejaVuSans-72"/>
       <use x="75.195312" xlink:href="#DejaVuSans-69"/>
       <use x="138.378906" xlink:href="#DejaVuSans-65"/>
       <use x="206.787109" xlink:href="#DejaVuSans-68"/>
      </g>
     </g>
    </g>
    <g id="xtick_18">
     <g id="line2d_33">
      <g>
       <use style="stroke:#000000;stroke-width:0.8;" x="1076.061017" xlink:href="#m48ca2ed5df" y="136.762286"/>
      </g>
     </g>
     <g id="text_43">
      <!-- STS -->
      <g transform="translate(1068.539142 149.841036)scale(0.08 -0.08)">
       <use xlink:href="#DejaVuSans-83"/>
       <use x="63.476562" xlink:href="#DejaVuSans-84"/>
       <use x="124.560547" xlink:href="#DejaVuSans-83"/>
      </g>
     </g>
    </g>
   </g>
   <g id="matplotlib.axis_12">
    <g id="ytick_16">
     <g id="line2d_34">
      <g>
       <use style="stroke:#000000;stroke-width:0.8;" x="962.794856" xlink:href="#m1f3f4e49ef" y="136.762286"/>
      </g>
     </g>
     <g id="text_44">
      <!-- 0 -->
      <g transform="translate(951.019234 141.62041)rotate(-45)scale(0.08 -0.08)">
       <use xlink:href="#DejaVuSans-48"/>
      </g>
     </g>
    </g>
    <g id="ytick_17">
     <g id="line2d_35">
      <g>
       <use style="stroke:#000000;stroke-width:0.8;" x="962.794856" xlink:href="#m1f3f4e49ef" y="90.824327"/>
      </g>
     </g>
     <g id="text_45">
      <!-- 50 -->
      <g transform="translate(947.42006 99.281624)rotate(-45)scale(0.08 -0.08)">
       <use xlink:href="#DejaVuSans-53"/>
       <use x="63.623047" xlink:href="#DejaVuSans-48"/>
      </g>
     </g>
    </g>
    <g id="ytick_18">
     <g id="line2d_36">
      <g>
       <use style="stroke:#000000;stroke-width:0.8;" x="962.794856" xlink:href="#m1f3f4e49ef" y="44.886367"/>
      </g>
     </g>
     <g id="text_46">
      <!-- 100 -->
      <g transform="translate(943.820887 56.942838)rotate(-45)scale(0.08 -0.08)">
       <use xlink:href="#DejaVuSans-49"/>
       <use x="63.623047" xlink:href="#DejaVuSans-48"/>
       <use x="127.246094" xlink:href="#DejaVuSans-48"/>
      </g>
     </g>
    </g>
    <g id="text_47">
     <!-- % of inconsistencies -->
     <g transform="translate(933.442874 139.43446)rotate(-90)scale(0.1 -0.1)">
      <use xlink:href="#DejaVuSans-37"/>
      <use x="95.019531" xlink:href="#DejaVuSans-32"/>
      <use x="126.806641" xlink:href="#DejaVuSans-111"/>
      <use x="187.988281" xlink:href="#DejaVuSans-102"/>
      <use x="223.193359" xlink:href="#DejaVuSans-32"/>
      <use x="254.980469" xlink:href="#DejaVuSans-105"/>
      <use x="282.763672" xlink:href="#DejaVuSans-110"/>
      <use x="346.142578" xlink:href="#DejaVuSans-99"/>
      <use x="401.123047" xlink:href="#DejaVuSans-111"/>
      <use x="462.304688" xlink:href="#DejaVuSans-110"/>
      <use x="525.683594" xlink:href="#DejaVuSans-115"/>
      <use x="577.783203" xlink:href="#DejaVuSans-105"/>
      <use x="605.566406" xlink:href="#DejaVuSans-115"/>
      <use x="657.666016" xlink:href="#DejaVuSans-116"/>
      <use x="696.875" xlink:href="#DejaVuSans-101"/>
      <use x="758.398438" xlink:href="#DejaVuSans-110"/>
      <use x="821.777344" xlink:href="#DejaVuSans-99"/>
      <use x="876.757812" xlink:href="#DejaVuSans-105"/>
      <use x="904.541016" xlink:href="#DejaVuSans-101"/>
      <use x="966.064453" xlink:href="#DejaVuSans-115"/>
     </g>
    </g>
   </g>
   <g id="patch_82">
    <path d="M 962.794856 136.762286 
L 962.794856 40.292571 
" style="fill:none;stroke:#000000;stroke-linecap:square;stroke-linejoin:miter;stroke-width:0.8;"/>
   </g>
   <g id="patch_83">
    <path d="M 1096.104 136.762286 
L 1096.104 40.292571 
" style="fill:none;stroke:#000000;stroke-linecap:square;stroke-linejoin:miter;stroke-width:0.8;"/>
   </g>
   <g id="patch_84">
    <path d="M 962.794856 136.762286 
L 1096.104 136.762286 
" style="fill:none;stroke:#000000;stroke-linecap:square;stroke-linejoin:miter;stroke-width:0.8;"/>
   </g>
   <g id="patch_85">
    <path d="M 962.794856 40.292571 
L 1096.104 40.292571 
" style="fill:none;stroke:#000000;stroke-linecap:square;stroke-linejoin:miter;stroke-width:0.8;"/>
   </g>
   <g id="text_48">
    <!-- vader -->
    <defs>
     <path d="M 2.984375 54.6875 
L 12.5 54.6875 
L 29.59375 8.796875 
L 46.6875 54.6875 
L 56.203125 54.6875 
L 35.6875 0 
L 23.484375 0 
z
" id="DejaVuSans-118"/>
    </defs>
    <g transform="translate(1012.253803 34.292571)scale(0.12 -0.12)">
     <use xlink:href="#DejaVuSans-118"/>
     <use x="59.179688" xlink:href="#DejaVuSans-97"/>
     <use x="120.458984" xlink:href="#DejaVuSans-100"/>
     <use x="183.935547" xlink:href="#DejaVuSans-101"/>
     <use x="245.458984" xlink:href="#DejaVuSans-114"/>
    </g>
   </g>
  </g>
  <g id="legend_1">
   <g id="patch_86">
    <path d="M 422.41625 22.95625 
L 676.30375 22.95625 
Q 678.30375 22.95625 678.30375 20.95625 
L 678.30375 7 
Q 678.30375 5 676.30375 5 
L 422.41625 5 
Q 420.41625 5 420.41625 7 
L 420.41625 20.95625 
Q 420.41625 22.95625 422.41625 22.95625 
z
" style="fill:#ffffff;opacity:0.8;stroke:#cccccc;stroke-linejoin:miter;"/>
   </g>
   <g id="patch_87">
    <path d="M 424.41625 16.598438 
L 444.41625 16.598438 
L 444.41625 9.598438 
L 424.41625 9.598438 
z
" style="fill:#ffc300;stroke:#ffffff;stroke-linejoin:miter;"/>
   </g>
   <g id="text_49">
    <!-- fact_fact -->
    <g transform="translate(452.41625 16.598438)scale(0.1 -0.1)">
     <use xlink:href="#DejaVuSans-102"/>
     <use x="35.205078" xlink:href="#DejaVuSans-97"/>
     <use x="96.484375" xlink:href="#DejaVuSans-99"/>
     <use x="151.464844" xlink:href="#DejaVuSans-116"/>
     <use x="190.673828" xlink:href="#DejaVuSans-95"/>
     <use x="240.673828" xlink:href="#DejaVuSans-102"/>
     <use x="275.878906" xlink:href="#DejaVuSans-97"/>
     <use x="337.158203" xlink:href="#DejaVuSans-99"/>
     <use x="392.138672" xlink:href="#DejaVuSans-116"/>
    </g>
   </g>
   <g id="patch_88">
    <path d="M 515.550625 16.598438 
L 535.550625 16.598438 
L 535.550625 9.598438 
L 515.550625 9.598438 
z
" style="fill:#ff5733;stroke:#ffffff;stroke-linejoin:miter;"/>
   </g>
   <g id="text_50">
    <!-- sub_sub -->
    <defs>
     <path d="M 8.5 21.578125 
L 8.5 54.6875 
L 17.484375 54.6875 
L 17.484375 21.921875 
Q 17.484375 14.15625 20.5 10.265625 
Q 23.53125 6.390625 29.59375 6.390625 
Q 36.859375 6.390625 41.078125 11.03125 
Q 45.3125 15.671875 45.3125 23.6875 
L 45.3125 54.6875 
L 54.296875 54.6875 
L 54.296875 0 
L 45.3125 0 
L 45.3125 8.40625 
Q 42.046875 3.421875 37.71875 1 
Q 33.40625 -1.421875 27.6875 -1.421875 
Q 18.265625 -1.421875 13.375 4.4375 
Q 8.5 10.296875 8.5 21.578125 
z
M 31.109375 56 
z
" id="DejaVuSans-117"/>
     <path d="M 48.6875 27.296875 
Q 48.6875 37.203125 44.609375 42.84375 
Q 40.53125 48.484375 33.40625 48.484375 
Q 26.265625 48.484375 22.1875 42.84375 
Q 18.109375 37.203125 18.109375 27.296875 
Q 18.109375 17.390625 22.1875 11.75 
Q 26.265625 6.109375 33.40625 6.109375 
Q 40.53125 6.109375 44.609375 11.75 
Q 48.6875 17.390625 48.6875 27.296875 
z
M 18.109375 46.390625 
Q 20.953125 51.265625 25.265625 53.625 
Q 29.59375 56 35.59375 56 
Q 45.5625 56 51.78125 48.09375 
Q 58.015625 40.1875 58.015625 27.296875 
Q 58.015625 14.40625 51.78125 6.484375 
Q 45.5625 -1.421875 35.59375 -1.421875 
Q 29.59375 -1.421875 25.265625 0.953125 
Q 20.953125 3.328125 18.109375 8.203125 
L 18.109375 0 
L 9.078125 0 
L 9.078125 75.984375 
L 18.109375 75.984375 
z
" id="DejaVuSans-98"/>
    </defs>
    <g transform="translate(543.550625 16.598438)scale(0.1 -0.1)">
     <use xlink:href="#DejaVuSans-115"/>
     <use x="52.099609" xlink:href="#DejaVuSans-117"/>
     <use x="115.478516" xlink:href="#DejaVuSans-98"/>
     <use x="178.955078" xlink:href="#DejaVuSans-95"/>
     <use x="228.955078" xlink:href="#DejaVuSans-115"/>
     <use x="281.054688" xlink:href="#DejaVuSans-117"/>
     <use x="344.433594" xlink:href="#DejaVuSans-98"/>
    </g>
   </g>
   <g id="patch_89">
    <path d="M 604.34125 16.598438 
L 624.34125 16.598438 
L 624.34125 9.598438 
L 604.34125 9.598438 
z
" style="fill:#c70039;stroke:#ffffff;stroke-linejoin:miter;"/>
   </g>
   <g id="text_51">
    <!-- sub_fact -->
    <g transform="translate(632.34125 16.598438)scale(0.1 -0.1)">
     <use xlink:href="#DejaVuSans-115"/>
     <use x="52.099609" xlink:href="#DejaVuSans-117"/>
     <use x="115.478516" xlink:href="#DejaVuSans-98"/>
     <use x="178.955078" xlink:href="#DejaVuSans-95"/>
     <use x="228.955078" xlink:href="#DejaVuSans-102"/>
     <use x="264.160156" xlink:href="#DejaVuSans-97"/>
     <use x="325.439453" xlink:href="#DejaVuSans-99"/>
     <use x="380.419922" xlink:href="#DejaVuSans-116"/>
    </g>
   </g>
  </g>
 </g>
 <defs>
  <clipPath id="p61310b54d3">
   <rect height="96.469714" width="133.309144" x="47.088" y="40.292571"/>
  </clipPath>
  <clipPath id="p241fc7a0de">
   <rect height="96.469714" width="133.309144" x="230.229371" y="40.292571"/>
  </clipPath>
  <clipPath id="pbc1b230d22">
   <rect height="96.469714" width="133.309144" x="413.370743" y="40.292571"/>
  </clipPath>
  <clipPath id="pf62e199dd3">
   <rect height="96.469714" width="133.309144" x="596.512114" y="40.292571"/>
  </clipPath>
  <clipPath id="p787d332959">
   <rect height="96.469714" width="133.309144" x="779.653485" y="40.292571"/>
  </clipPath>
  <clipPath id="p25ccd04d41">
   <rect height="96.469714" width="133.309144" x="962.794856" y="40.292571"/>
  </clipPath>
 </defs>
</svg>
